<svg version="1.1" id="book" xmlns="http://www.w3.org/2000/svg" x="0" y="0" viewBox="0 0 445 639" xml:space="preserve"><style>.st2{fill-rule:evenodd;clip-rule:evenodd;fill:#65e496}</style><path id="book-2" d="M5 0h435c2.8 0 5 2.2 5 5v629c0 2.8-2.2 5-5 5H5c-2.8 0-5-2.2-5-5V5c0-2.8 2.2-5 5-5z" fill="#44444f"/><path fill="#3d3d47" d="M0 0h62.7v639H0z"/><path class="st2" d="M445 467.1L376.1 536c-12 12-12 31.5 0 43.5s31.5 12 43.5 0l25.4-25.4v-87zM445 340.5L295.3 490.2c-12 12-12 31.5 0 43.5s31.5 12 43.5 0L445 427.5v-87z"/></svg>